<svg width="180" height="180" viewBox="0 0 180 180" fill="none" xmlns="http://www.w3.org/2000/svg">
  <!-- Background: teal rounded square — #0f6d75 -->
  <rect width="180" height="180" rx="36" fill="#0f6d75"/>

  <!--
    Lucide Sparkles icon — exact same paths used in Header.tsx
    Original 24×24 viewBox → scale(4.167) centered in 180×180
    translate = (180 - 24×4.167) / 2 ≈ 40
  -->
  <g transform="translate(40,40) scale(4.167)" stroke="white" stroke-linecap="round" stroke-linejoin="round" fill="none">
    <!-- stroke-width="1.5" × scale(4.167) ≈ 6.25px visual — crisp at all sizes -->
    <path stroke-width="1.5"
      d="m12 3-1.912 5.813a2 2 0 0 1-1.275 1.275L3 12l5.813 1.912a2 2 0 0 1 1.275 1.275L12 21l1.912-5.813a2 2 0 0 1 1.275-1.275L21 12l-5.813-1.912a2 2 0 0 1-1.275-1.275L12 3Z"/>
    <path stroke-width="1.5" d="M5 3v4"/>
    <path stroke-width="1.5" d="M19 17v4"/>
    <path stroke-width="1.5" d="M3 5h4"/>
    <path stroke-width="1.5" d="M17 19h4"/>
  </g>
</svg>
